<?xml version="1.0" encoding="UTF-8"?>
<svg id="Layer_1" data-name="Layer 1" xmlns="http://www.w3.org/2000/svg" viewBox="0 0 841.81 683.6">
  <path d="M420.91,0C232.13,0,79.1,153.03,79.1,341.8s153.03,341.8,341.8,341.8,341.8-153.03,341.8-341.8S609.68,0,420.91,0ZM412.04,599.11c-47.71,0-99.52-10.91-134.96-27.95v-94.75c49.76,67.48,101.56,114.51,158.14,114.51,44.31,0,72.93-29.31,72.93-76.34,0-139.73-249.47-138.37-249.47-300.6,0-89.97,77.02-129.51,160.18-129.51,44.31,0,96.79,10.91,130.87,28.63v94.75c-49.08-67.48-97.47-115.88-148.59-115.88-43.62.68-67.48,35.44-67.48,77.02,0,132.92,249.47,135.64,249.47,293.78,0,83.16-68.16,136.32-171.09,136.32Z"/>
</svg>