<?xml version="1.0" encoding="UTF-8" standalone="no"?>
<!-- Created with Inkscape (http://www.inkscape.org/) -->

<svg
   version="1.1"
   id="svg2472"
   xml:space="preserve"
   width="682.66669"
   height="682.66669"
   viewBox="0 0 682.66669 682.66669"
   xmlns="http://www.w3.org/2000/svg"
   xmlns:svg="http://www.w3.org/2000/svg"><defs
     id="defs2476"><clipPath
       clipPathUnits="userSpaceOnUse"
       id="clipPath2486"><path
         d="M 0,512 H 512 V 0 H 0 Z"
         id="path2484" /></clipPath></defs><g
     id="g2478"
     transform="matrix(1.3333333,0,0,-1.3333333,0,682.66667)"><g
       id="g2480"><g
         id="g2482"
         clip-path="url(#clipPath2486)"><g
           id="g2488"
           transform="translate(210.9998,502.0001)"><path
             d="m 0,0 h -111 v -274 h -28.996 c -14.702,0 -22.064,-17.775 -11.669,-28.17 L 33.332,-487.167 c 6.444,-6.444 16.892,-6.444 23.337,0 l 184.996,184.997 c 10.396,10.395 3.033,28.17 -11.668,28.17 L 201,-274 V 0 H 90"
             style="fill:none;stroke:#000000;stroke-width:20;stroke-linecap:round;stroke-linejoin:round;stroke-miterlimit:10;stroke-dasharray:none;stroke-opacity:1"
             id="path2490" /></g><g
           id="g2492"
           transform="translate(283.5121,443.9137)"><path
             d="M 0,0 -55.024,-113.306"
             style="fill:none;stroke:#000000;stroke-width:20;stroke-linecap:round;stroke-linejoin:round;stroke-miterlimit:10;stroke-dasharray:none;stroke-opacity:1"
             id="path2494" /></g><g
           id="g2496"
           transform="translate(329.4149,348.5263)"><path
             d="m 0,0 c 0,-12.15 -9.85,-22 -22,-22 -12.15,0 -22,9.85 -22,22 0,12.15 9.85,22 22,22 C -9.85,22 0,12.15 0,0 Z"
             style="fill:none;stroke:#000000;stroke-width:20;stroke-linecap:round;stroke-linejoin:round;stroke-miterlimit:10;stroke-dasharray:none;stroke-opacity:1"
             id="path2498" /></g><g
           id="g2500"
           transform="translate(182.5851,425.9955)"><path
             d="M 0,0 C 0,12.15 9.85,22 22,22 34.15,22 44,12.15 44,0 44,-12.15 34.15,-22 22,-22 9.85,-22 0,-12.15 0,0 Z"
             style="fill:none;stroke:#000000;stroke-width:20;stroke-linecap:round;stroke-linejoin:round;stroke-miterlimit:10;stroke-dasharray:none;stroke-opacity:1"
             id="path2502" /></g><g
           id="g2504"
           transform="translate(296,255.5802)"><path
             d="M 0,0 H -32.187 V -79.414"
             style="fill:none;stroke:#000000;stroke-width:20;stroke-linecap:round;stroke-linejoin:round;stroke-miterlimit:10;stroke-dasharray:none;stroke-opacity:1"
             id="path2506" /></g><g
           id="g2508"
           transform="translate(263.8132,216.6252)"><path
             d="M 0,0 H 29.63"
             style="fill:none;stroke:#000000;stroke-width:20;stroke-linecap:round;stroke-linejoin:round;stroke-miterlimit:10;stroke-dasharray:none;stroke-opacity:1"
             id="path2510" /></g><g
           id="g2512"
           transform="translate(223.8132,215.8732)"><path
             d="m 0,0 c 0,-22.091 -17.909,-40 -40,-40 -22.091,0 -40,17.909 -40,40 0,22.091 17.909,40 40,40 C -17.909,40 0,22.091 0,0 Z"
             style="fill:none;stroke:#000000;stroke-width:20;stroke-linecap:round;stroke-linejoin:round;stroke-miterlimit:10;stroke-dasharray:none;stroke-opacity:1"
             id="path2514" /></g><g
           id="g2516"
           transform="translate(368.1868,255.5802)"><path
             d="M 0,0 H -32.187 V -79.414"
             style="fill:none;stroke:#000000;stroke-width:20;stroke-linecap:round;stroke-linejoin:round;stroke-miterlimit:10;stroke-dasharray:none;stroke-opacity:1"
             id="path2518" /></g><g
           id="g2520"
           transform="translate(336,216.6252)"><path
             d="M 0,0 H 29.63"
             style="fill:none;stroke:#000000;stroke-width:20;stroke-linecap:round;stroke-linejoin:round;stroke-miterlimit:10;stroke-dasharray:none;stroke-opacity:1"
             id="path2522" /></g><g
           id="g2524"
           transform="translate(256,502.0001)"><path
             d="M 0,0 V 0"
             style="fill:none;stroke:#000000;stroke-width:20;stroke-linecap:round;stroke-linejoin:round;stroke-miterlimit:10;stroke-dasharray:none;stroke-opacity:1"
             id="path2526" /></g></g></g></g></svg>
