<svg id="Layer_1" enable-background="new 0 0 68 68" viewBox="0 0 68 68" xmlns="http://www.w3.org/2000/svg"><g><path d="m58.488 35.458c-.317-.163-7.848-3.942-13.623 1.284-3.386 3.064-2.611 7.502-1.581 9.813-.244.48-.491.982-.755 1.521l-.162.332c-.243.496-.038 1.095.458 1.338.142.069.292.102.439.102.37 0 .726-.206.899-.56l.163-.333c.211-.431.408-.834.599-1.214.676.152 1.697.326 2.87.326 1.382 0 2.962-.242 4.392-1.046 1.875-1.055 3.118-2.848 3.693-5.327.751-3.234 2.602-4.447 2.672-4.492.308-.189.49-.529.477-.89-.013-.363-.22-.689-.541-.854zm-4.555 5.782c-.442 1.906-1.357 3.262-2.717 4.031-1.774 1.003-3.955.854-5.288.623.978-1.611 2.125-2.864 4.393-4.388.458-.308.581-.929.272-1.388s-.93-.579-1.388-.272c-2.26 1.519-3.562 2.856-4.581 4.372-.392-1.674-.473-4.134 1.582-5.994 3.468-3.14 7.802-2.285 9.984-1.549-.794.907-1.75 2.378-2.257 4.565z"/><path d="m62 16.183h-4.97v-11.259c0-1.541-1.253-2.794-2.794-2.794h-7.176c-1.541 0-2.794 1.253-2.794 2.794 0 .552.448 1 1 1s1-.448 1-1c0-.438.356-.794.794-.794h7.176c.438 0 .794.356.794.794v11.259h-8.764v-6.933c0-.552-.448-1-1-1s-1 .448-1 1v6.933h-4.97c-2.206 0-4 1.794-4 4v41.688c0 2.206 1.794 4 4 4 .552 0 1-.448 1-1s-.448-1-1-1c-1.103 0-2-.897-2-2v-6.587h26.704v6.587c0 1.103-.897 2-2 2h-18.735c-.552 0-1 .448-1 1s.448 1 1 1h18.735c2.206 0 4-1.794 4-4v-41.688c0-2.206-1.794-4-4-4zm-24.704 37.101v-22.72h19.454c.552 0 1-.448 1-1s-.448-1-1-1h-19.454v-8.381c0-1.103.897-2 2-2h22.704c1.103 0 2 .897 2 2v8.381h-2.625c-.552 0-1 .448-1 1s.448 1 1 1h2.625v22.72z"/><path d="m2.004 20.597v.07l3.137 35.136c.147 1.649 1.342 2.944 2.899 3.271v4.454c0 1.292 1.05 2.342 2.342 2.342h10.053c1.292 0 2.342-1.051 2.342-2.342v-4.454c1.557-.328 2.752-1.622 2.899-3.271l3.141-35.225v-4.027c0-1.292-1.051-2.342-2.342-2.342h-22.133c-1.291 0-2.342 1.051-2.342 2.342l.004 4.008c0 .007-.004.012-.004.019s.004.012.004.019zm18.431 43.274h-10.053c-.188 0-.342-.153-.342-.342v-4.369h10.737v4.369c0 .188-.153.342-.342.342zm3.249-8.246c-.078.875-.799 1.535-1.678 1.535h-13.195c-.878 0-1.6-.66-1.678-1.535l-3.044-34.047h22.635zm-19.342-39.416h22.133c.189 0 .342.153.342.342l.003 3.027h-22.82v-3.027c0-.188.153-.342.342-.342z"/><path d="m20.287 43h-9.757c-.552 0-1 .448-1 1s.448 1 1 1h9.757c.552 0 1-.448 1-1s-.448-1-1-1z"/><path d="m20.287 47h-9.757c-.552 0-1 .448-1 1s.448 1 1 1h9.757c.552 0 1-.448 1-1s-.448-1-1-1z"/><path d="m15.409 37.591c3.083 0 5.591-2.508 5.591-5.591s-2.508-5.591-5.591-5.591-5.592 2.508-5.592 5.591 2.509 5.591 5.592 5.591zm0-9.182c1.98 0 3.591 1.611 3.591 3.591s-1.611 3.591-3.591 3.591-3.592-1.611-3.592-3.591 1.611-3.591 3.592-3.591z"/></g></svg>