<svg id="Product_Launch" viewBox="0 0 64 64" xmlns="http://www.w3.org/2000/svg" data-name="Product Launch"><path d="m27.41 11-.72 3.78c-.07.37.07.75.37.98s.7.28 1.04.11l3.9-1.85 3.9 1.85c.14.07.28.1.43.1.22 0 .43-.07.61-.21.3-.23.44-.61.37-.98l-.72-3.78 3.07-2.7c.29-.26.41-.67.3-1.04s-.44-.65-.83-.7l-4.33-.57-1.92-3.51c-.35-.64-1.4-.64-1.75 0l-1.92 3.51-4.33.57c-.39.05-.71.32-.83.7s0 .78.3 1.04l3.07 2.7zm2.56-3.09c.32-.04.59-.23.75-.51l1.29-2.35 1.29 2.35c.15.28.43.47.75.51l2.65.35-1.84 1.62c-.27.23-.39.59-.32.94l.46 2.41-2.55-1.21c-.13-.06-.28-.1-.43-.1s-.29.03-.43.1l-2.55 1.21.46-2.41c.07-.35-.06-.7-.32-.94l-1.84-1.62 2.65-.35z"/><path d="m8.67 14.71-.55 3.08c-.07.37.08.75.39.98.3.23.71.26 1.05.09l2.95-1.48 2.95 1.48c.14.07.3.11.45.11.21 0 .42-.07.6-.2.3-.23.45-.6.39-.98l-.55-3.08 2.35-2.19c.28-.26.39-.67.27-1.03-.12-.37-.43-.64-.82-.69l-3.29-.46-1.46-2.83c-.34-.66-1.43-.66-1.78 0l-1.46 2.83-3.29.46c-.38.05-.7.32-.82.69s-.01.77.27 1.03zm2.27-2.46c.32-.04.6-.24.75-.53l.81-1.57.81 1.57c.15.29.43.49.75.53l1.72.24-1.21 1.13c-.25.23-.36.57-.3.91l.3 1.65-1.61-.81c-.14-.07-.29-.11-.45-.11s-.31.04-.45.11l-1.61.81.3-1.65c.06-.34-.05-.68-.3-.91l-1.21-1.13 1.72-.24z"/><path d="m47.67 14.71-.55 3.08c-.07.37.08.75.39.98.3.23.71.26 1.05.09l2.95-1.48 2.95 1.48c.14.07.3.11.45.11.21 0 .42-.07.6-.2.3-.23.45-.6.39-.98l-.55-3.08 2.35-2.19c.28-.26.39-.67.27-1.03-.12-.37-.43-.64-.82-.69l-3.29-.46-1.46-2.83c-.34-.66-1.43-.66-1.78 0l-1.46 2.83-3.29.46c-.38.05-.7.32-.82.69s-.01.77.27 1.03zm2.27-2.46c.32-.04.6-.24.75-.53l.81-1.57.81 1.57c.15.29.43.49.75.53l1.72.24-1.21 1.13c-.25.23-.36.57-.3.91l.3 1.65-1.61-.81c-.14-.07-.29-.11-.45-.11s-.31.04-.45.11l-1.61.81.3-1.65c.06-.34-.05-.68-.3-.91l-1.21-1.13 1.72-.24z"/><path d="m58.83 37.43-4-6c-.19-.28-.5-.45-.83-.45h-30c-.55 0-1 .45-1 1s.45 1 1 1h6.13l-2.67 4h-19.59l2.67-4h9.46c.55 0 1-.45 1-1s-.45-1-1-1h-10c-.33 0-.65.17-.83.45l-4 6c-.2.31-.22.7-.05 1.03s.51.53.88.53h3v22.01c0 .55.45 1 1 1h9c.55 0 1-.45 1-1s-.45-1-1-1h-8v-21.01h17c.33 0 .65-.17.83-.45l2.17-3.25v24.71h-8c-.55 0-1 .45-1 1s.45 1 1 1h31c.55 0 1-.45 1-1v-7c0-.55-.45-1-1-1s-1 .45-1 1v6h-20v-24.71l2.17 3.25c.19.28.5.45.83.45h17v11.01c0 .55.45 1 1 1s1-.45 1-1v-11.01h3c.37 0 .71-.2.88-.53s.15-.72-.05-1.03zm-22.29-.45-2.67-4h19.6l2.67 4z"/><path d="m14 53.99h4c.55 0 1-.45 1-1s-.45-1-1-1h-4c-.55 0-1 .45-1 1s.45 1 1 1z"/><path d="m21 56h-7c-.55 0-1 .45-1 1s.45 1 1 1h7c.55 0 1-.45 1-1s-.45-1-1-1z"/><path d="m31 18.97v9.01c0 .55.45 1 1 1s1-.45 1-1v-9.01c0-.55-.45-1-1-1s-1 .45-1 1z"/><path d="m38.65 28.91c.12.04.23.06.35.06.4 0 .79-.25.94-.65l3-8.01c.19-.52-.07-1.09-.58-1.29-.52-.19-1.09.07-1.29.59l-3 8.01c-.19.52.07 1.09.58 1.29z"/><path d="m49.11 21.53-3 6c-.25.49-.05 1.1.45 1.34.14.07.3.11.45.11.37 0 .72-.2.9-.55l3-6c.25-.49.05-1.1-.45-1.34-.49-.25-1.09-.05-1.34.45z"/><path d="m24.06 28.33c.15.4.53.65.94.65.12 0 .24-.02.35-.06.52-.19.78-.77.58-1.29l-3-8.01c-.19-.52-.77-.78-1.29-.59s-.78.77-.58 1.29z"/><path d="m13.55 21.08c-.49.25-.69.85-.45 1.34l3 6c.18.35.53.55.9.55.15 0 .3-.03.45-.11.49-.25.69-.85.45-1.34l-3-6c-.25-.5-.85-.69-1.34-.45z"/></svg>