<svg id="Layer_1" enable-background="new 0 0 512 512" viewBox="0 0 512 512" xmlns="http://www.w3.org/2000/svg"><path d="m495.23 473.3-57.83-100.14 2.75-1.59c6.71-3.88 9.01-12.51 5.13-19.22l-12.27-21.26c7.77-10.06 13.87-21.41 17.92-33.69 1.38-4.19-.89-8.71-5.08-10.1-4.2-1.39-8.71.89-10.1 5.08-7.49 22.69-23.03 41.78-43.74 53.75-46.49 26.83-106.14 10.84-132.97-35.62-13-22.51-16.45-48.74-9.72-73.86s22.83-46.11 45.35-59.11c11.73-6.77 24.48-10.95 37.55-12.45.28-.02.56-.05.83-.1 11.74-1.24 23.74-.32 35.48 2.82 25.12 6.73 46.11 22.83 59.1 45.34 10.35 17.97 14.68 38.33 12.5 58.89-.46 4.39 2.72 8.33 7.11 8.79 4.38.46 8.33-2.72 8.79-7.11 2.54-23.94-2.49-47.64-14.55-68.56-15.13-26.21-39.57-44.96-68.81-52.8-10.91-2.92-22-4.19-32.98-3.86v-58.01c0-16.74-13.62-30.36-30.36-30.36h-55.62v-10.89c0-7.49-6.09-13.58-13.58-13.58h-20.72c-3.75-20.26-21.56-35.66-42.88-35.66-21.34 0-39.15 15.39-42.92 35.66h-20.69c-7.49 0-13.58 6.09-13.58 13.58v10.89h-55.64c-16.74 0-30.36 13.62-30.36 30.36v50.94c0 4.42 3.58 7.99 7.99 7.99s7.99-3.58 7.99-7.99v-50.94c0-7.92 6.45-14.37 14.37-14.37h55.64v19.96c0 7.5 6.09 13.61 13.58 13.61h127.22c7.49 0 13.58-6.1 13.58-13.61v-19.97h55.62c7.92 0 14.37 6.45 14.37 14.37v59.69c-12.87 2.27-25.37 6.8-37.02 13.52-26.21 15.13-44.96 39.57-52.79 68.81s-3.82 59.78 11.32 85.99c17.4 30.13 46.64 49.24 78.5 54.87v97.38c0 7.92-6.45 14.37-14.37 14.37h-265.64c-7.92 0-14.37-6.45-14.37-14.37v-307.32c0-4.42-3.58-7.99-7.99-7.99s-7.99 3.58-7.99 7.99v307.33c0 16.74 13.62 30.36 30.36 30.36h265.63c16.74 0 30.36-13.62 30.36-30.36v-95.69c1.28.04 2.56.07 3.85.07 4.98 0 9.97-.33 14.94-1l12.25 21.22c1.87 3.27 4.91 5.6 8.55 6.59 1.22.33 2.46.49 3.69.49 2.44 0 4.84-.64 7-1.89l2.74-1.58 57.82 100.16c3.42 5.94 8.96 10.2 15.62 11.99 2.24.6 4.52.9 6.78.9 4.47 0 8.88-1.17 12.84-3.45 12.3-7.08 16.54-22.89 9.45-35.26zm-257.5-379.61h-122.4v-42.04h25.54c4.42 0 7.99-3.58 7.99-7.99 0-15.26 12.41-27.67 27.67-27.67 15.24 0 27.64 12.41 27.64 27.67 0 4.42 3.58 7.99 7.99 7.99h25.57zm137.21 276.98c8.58-2.49 17-6.03 25.07-10.69 7.96-4.6 15.25-10.12 21.77-16.38l8.7 15.09-38.79 22.4c-.02.01-.03.02-.05.02s-.03.02-.04.03l-7.96 4.6zm102.86 124.03c-2.27 1.31-4.93 1.66-7.49.97-2.53-.68-4.63-2.29-5.92-4.53l-57.83-100.17 16.99-9.81 57.82 100.12c2.71 4.71 1.1 10.73-3.57 13.42zm-112.05-316.48c-22.33-5.98-45.66-2.9-65.69 8.67-20.03 11.55-34.35 30.22-40.34 52.55-5.98 22.33-2.92 45.66 8.64 65.69 16.02 27.74 45.19 43.27 75.14 43.26 14.67 0 29.54-3.73 43.13-11.57 41.33-23.89 55.53-76.95 31.67-118.26-11.55-20.03-30.22-34.36-52.55-40.34zm12.89 144.76c-11.08 6.4-23.2 9.43-35.16 9.43-24.42 0-48.2-12.66-61.27-35.27-9.42-16.33-11.92-35.35-7.04-53.56s16.56-33.42 32.89-42.84c10.88-6.29 22.96-9.5 35.19-9.5 6.12 0 12.29.81 18.36 2.43 18.21 4.88 33.42 16.55 42.84 32.89 19.47 33.68 7.88 76.94-25.81 96.42zm-321.76-3.63c0 6.88 5.6 12.47 12.47 12.47h43.94c6.86 0 12.44-5.6 12.44-12.47v-43.91c0-6.88-5.58-12.47-12.44-12.47h-43.94c-6.88 0-12.47 5.59-12.47 12.47zm15.98-40.39h36.88v36.88h-36.88zm-3.51-61h43.94c6.86 0 12.44-5.6 12.44-12.47v-43.94c0-6.86-5.58-12.44-12.44-12.44h-43.94c-6.88 0-12.47 5.58-12.47 12.44v43.94c0 6.87 5.59 12.47 12.47 12.47zm3.51-52.87h36.88v36.88h-36.88zm77.33 18.43c0-4.41 3.58-7.99 7.99-7.99h76.42c4.42 0 7.99 3.58 7.99 7.99s-3.58 7.99-7.99 7.99h-76.42c-4.41 0-7.99-3.58-7.99-7.99zm0 113.89c0-4.41 3.58-7.99 7.99-7.99h55.96c4.42 0 7.99 3.58 7.99 7.99s-3.58 7.99-7.99 7.99h-55.96c-4.41.01-7.99-3.57-7.99-7.99zm-93.31 135.84c0 6.86 5.6 12.44 12.47 12.44h43.94c6.86 0 12.44-5.58 12.44-12.44v-43.94c0-6.86-5.58-12.44-12.44-12.44h-43.94c-6.88 0-12.47 5.58-12.47 12.44zm15.98-40.39h36.88v36.85h-36.88zm77.33 18.42c0-4.41 3.58-7.99 7.99-7.99h129.97c4.42 0 7.99 3.58 7.99 7.99s-3.58 7.99-7.99 7.99h-129.96c-4.42.01-8-3.57-8-7.99zm235.97-178.08c3.12 3.12 3.12 8.18 0 11.3l-45.98 45.98c-1.56 1.56-3.61 2.34-5.65 2.34s-4.09-.78-5.65-2.34l-28.35-28.35c-3.12-3.12-3.12-8.18 0-11.3s8.18-3.12 11.3 0l22.69 22.69 40.33-40.33c3.13-3.11 8.19-3.11 11.31.01z"/></svg>