<?xml version="1.0" encoding="UTF-8"?>
<svg id="Layer_1" data-name="Layer 1" xmlns="http://www.w3.org/2000/svg" viewBox="0 0 213.87 205.68">
  <defs>
    <style>
      .cls-1 {
        fill: #d1331e;
      }

      .cls-1, .cls-2, .cls-3 {
        stroke-width: 0px;
      }

      .cls-2 {
        fill: #272727;
      }

      .cls-3 {
        fill: #c94248;
      }
    </style>
  </defs>
  <g>
    <path class="cls-3" d="m213.65,100.72c-.21-1.55-1.1-.69-.89-.73-.05.92.74.59.89.73Z"/>
    <path class="cls-3" d="m209.71,85.11c.49.28.67.74-.81-1.83l.81,1.83Z"/>
    <path class="cls-3" d="m207.25,64.76c-.12-.29-.28-.69-.51-1.38-.32.64-1.03-1.38.5,1.73,0-.18,0-.24,0-.35Z"/>
    <path class="cls-3" d="m204.24,58.44l1.25,1.63c.24-1.07-1.29-4.59-1.25-1.63Z"/>
    <path class="cls-3" d="m202.55,57.16c.22.27.43.55.63.83.04-.22-.02-.49-.63-.83Z"/>
    <path class="cls-3" d="m204.45,59.8l-1.28-1.81c-.22.99-.33-.03,1.28,1.81Z"/>
    <path class="cls-3" d="m204.13,61.9c1.79,3.73,2.17,2.08.65-.88.2,1.13.54,2.52-.65.88Z"/>
    <path class="cls-3" d="m198.39,48.46c.37.35.7.72,1.04,1.09-.99-4.06-.54-1.75-1.04-1.09Z"/>
    <path class="cls-3" d="m198.39,48.46l-1.6-1.58c1,1.67,1.4,1.85,1.6,1.58Z"/>
    <path class="cls-3" d="m203.48,60.29c-4.41-5.59-2.31-2.52-2.44-2.77.87.88,1.62,1.84,2.44,2.77Z"/>
    <path class="cls-3" d="m195.44,40.78c-1.58-.95-3.17-1.84-1.27-.63l1.27.63Z"/>
    <path class="cls-3" d="m190.57,35.84c1.04.35-.12-1.57.79-1.05-1.09-1.1-2.3-1.79-3.4-2.37,1.02.76,1.84,1.83,2.62,3.42Z"/>
    <path class="cls-3" d="m186.14,31.42c.52.36,1.14.66,1.81,1-.55-.39-1.14-.74-1.81-1Z"/>
    <path class="cls-3" d="m194.5,41.83c-.19,1.42-.29.99.33,1.89.05-.24.23-.77-.33-1.89Z"/>
    <path class="cls-3" d="m194.34,43.05c0-.06.12.13-1.04-1.58.13.2.44.67,1.04,1.58Z"/>
    <path class="cls-3" d="m194.95,43.89l-.12-.18c-.02.11,0,.17.12.18Z"/>
    <path class="cls-3" d="m196.94,51.84c.93.5.54-.96,2.09.35-1.03-.89-2.75-2.9-2.09-.35Z"/>
    <path class="cls-3" d="m196.56,47.09c-2.36-2.27-2.24-2.52-.73.27.16-.15.19-.68.73-.27Z"/>
    <path class="cls-3" d="m194.29,44.6c-.56-.05-.65-.24.44.73l-.44-.73Z"/>
    <path class="cls-3" d="m185.71,32.71c.82,1.05,1.64,2.15,2.49,3.13,1.49-.14-.12-.85-2.49-3.13Z"/>
    <path class="cls-3" d="m191.28,38.82l-.17-.15c.03.15.08.25.17.15Z"/>
    <path class="cls-3" d="m189.86,37.55c-.55-.51-1.1-1.07-1.66-1.71-.36.03.6,1.2,1.66,1.71Z"/>
    <path class="cls-3" d="m183.47,29.23c.26.48.58.99.91,1.54-.16-.56-.63-1.57-.91-1.54Z"/>
    <path class="cls-3" d="m191.07,38.27l.12.09c-.07-.37-.11-.28-.12-.09Z"/>
    <path class="cls-3" d="m191.07,38.27c-.48-.39-2.5-1.56.03.41-.03-.13-.04-.29-.03-.41Z"/>
    <path class="cls-3" d="m194.15,46.34l.08-.21c-.05-.04-.07.05-.08.21Z"/>
    <path class="cls-3" d="m177.74,23.42c-3.65-.79-2.53-.45-.93.34l.93-.34Z"/>
    <path class="cls-3" d="m173.52,20.35c-1.72-.57-1.49-.61-.59.49l.59-.49Z"/>
    <path class="cls-3" d="m127.42,2.35c-1.32-.49-2.4-.77-3.35-.93,1.61.68,2.82,1.55,3.35.93Z"/>
    <path class="cls-3" d="m124.07,1.42c-1.18-.5-2.59-.79-3.98-.33,1.25.54,1.61-.07,3.98.33Z"/>
    <path class="cls-3" d="m210.7,115.7c.1-.32.17-.88.17-1.85,0,.45-.1,1.17-.17,1.85Z"/>
    <path class="cls-3" d="m157.63,11.45c-.3-.27-.66-.55-1.07-.82.16.15.48.41,1.07.82Z"/>
    <path class="cls-3" d="m157.61,11.01c.3.19.54.34.77.48.18-.06.11-.19-.77-.48Z"/>
    <path class="cls-3" d="m156.4,10.42c-2.36-.98-1.08-.53.15.21-.16-.13-.22-.21-.15-.21Z"/>
    <path class="cls-3" d="m136.76,72.48c-24.14-14.02-25.1-15.82-29.4-13.33l-22.96,13.33c-4.26,2.47-4.26,8.63,0,11.1,24.13,14.02,25.11,15.84,29.41,13.34l22.95-13.34c4.26-2.48,4.26-8.63,0-11.1Z"/>
    <path class="cls-1" d="m210.95,106.62c.11-1.46.08-2.88-.5-3.19l.17,1.79c-.62-1.11-1.34-.53-2.13.34.47-7.5-.14-3.79.83-5.17-.96-1.89-.5-1.71-.87-7.17.3.5.61.96.81,1.68.42.5.93.77,1.01,2.05.91-.43,1.04,2.39,1.75,1.54.21-1.68-.56-.86-.62-1.86-.28-.58.02-1.04-.09-1.87-.06-.4-.57-1.09-.33-1.31.03-1.17-.45-.84-.48-1.83.12-.84-.17-1.45-.45-2.09.65-.17-.58-2.55-.81-3.63-.27-.55-.7-.42-.91-1.19.43-.83-.2-2.37-.6-3.36-.79-.22-.23,2.82-1.02-.97.42,1.12.61-.44.45-.52-.32-.48-.1-.7-.29-1.28-.22-.65-.8-.89-.92-1.92-.15-.11,0,.26-.7-2.26.16,0,1.3.99,1.43-.49.7,1.98,1.94,4.05,1.34,5.37l1.32.86c-.14-.46-3.89-12.26-2.95-7.25-.51-.54-.19-1.72-2.4-2.64-1.88-5.73-1.92-4.28-1.16-4.94,1.02,1.61,2.94-.74-.98-3-.74.35-.16,1.57-1.1-.54.09-.3-.6-1.21-.29-1.42.55-.21,1.01-.51.92-1.3-1.02-2.28-1.92-1.26-2.88-2.01-1.63-3.21-1.89-3.11-1.06-3.37-.53-.92-.98-1.14-1.41-1.18-.07-.12-1.89-4.55-1.86-6.2-1.16,3.08.38,2.61-6.25-5.62.37-1.12-.28-1.38-.6-1.76l.08-.11c1.18,1.69,1.29,1.03,1.71,1.02-.84-.89-1.75-1.7-2.64-2.53.59,1.65-.18.38-.58.18-.84-.41.31.97-2.65-2.19.43-.19.88-.36,1.33-.5-.21-.63-.9-1.65-1.66-2.32.53.22.81.08,1.66.64-3.19-3.05,1.21.61-.67-2.04,3.4,2.58,1.08,1.52.53-.23-3.68-3.22-3.29-1.79-5.27-5.74-3.34-1.76-1.07.65-4.73-1.19,2.57,4.81,2.45,1.9-.09,2.15-.8-.75-.49-.99-1.15-1.88.33,1.27-2.97-.44-3.87-1.09.51-.63,1.36-1.31,1.66-1.75-.7-.86.73-.34-.37-1.57-.36-1.31-.58-.16-1.45-2.32.56,2.34-6.15-4.01-4.69-1-.92-2.26-2.6-2.32-4.55-4.85-.1.38.52,1.1-1.54-.17-.11.04-.53.13-.76-.04l.1.1c-.12,0-.13.01.04.04,2.89,2.74-3.43-.27-5.37-.42-.94-.58,2.23-.9-1.84-.97.16-.85-2.98-2.7.33-1.93-4.68-1.91-5.68-3.11-8.18-3.3-.71-.31-18.63-2.48-21.89-3.63-2.3.15-3.97.19-5.84-.03-.71-1.06.25-.59-4.44-.89-1.39-.08-2.64-.12-3.05.32-2.52-2-10.74.68-13.5.9.1,1.96.92-.14-7.45,3.38,1.05,1.99-4.85,1.6-9.99,3.73.14-.41,1.15-.71,1.91-.8-5.53,0-8.54,5.08-13.48,6.27-2.69,2.73-9.89,1.48-6.43,3.16-.26.2-2.03.82.1,1.3-.46.46-.83.97-1.07,1.41-1.65-.62-2.42,2.28-4.45,1.9-.2,1.08-3.96,3.78-4.07,5.76-4.31,2.73-1.62,3.23-4.13,2.36-.81,2.32-1.07,3.3-1.06,3.27-1.78.84-2.64,1.14-2-.83-2.43,4.87-1.77,1.96-3.53,6.8l-.47-.62c-.82,1.09-1.35,3.41-2.35,3.67-1.77.93-4.4,4.97-5.39,6.5-.18-.11-.38-.2-.63-.27-3.88,2.72-1.29,3.39-3.97,7.01-.59,1.1-.26-.95-2.19,3.42.47.87.65.29-.31,1.81-.87-.4-1.53-1.43-2.21-2.07-.58.36-1.14.39-1.71.45-2.98,5.36.46,3.75.43,5.56-.47,1.82-.41-.39-2.19,4.46-.08,1.31.59,1.74.96,2.57-.09,1.27-2-1.29-2,4.25-.2.54-.57,1.11-.48,1.57.99.5.06,1.18,2.47,1.9-1.5,2.87.72,2.64-1.54,2.44-.38.36-.71.97-1.14,1.16-.87-.37-2.21-.59-3.15-.56-1.13.04-2.32-1.31-3.24.59-.62,2.72,1.58,4.32,3.72,4.53.03,0,.29-.27.49-.21.74.2.76.49,2.53.95-.28,2.93.29,1.87.17,3.64-1.46-.3-2.9-.39-4.29.77-2.83-.08-1.7,1.09-1.61,4.09-1.41-.37-2.59-.09-2.49,3.64,1.48,4.48,5.31,1.67,7.6,2.94.47.18.37-.87.9-.55.09.62.34.02.4,1.09-.77.07-1.54-.35-2.2.03-.45.27-.69,1.11-1.11,1.4-4.35.62-5.95-1.66-4.78,3.66,1.66,2.03,3.73,1.27,5.95,1.42.71.05,1.18.48,2.04.34-.02.44-.06.96-.11,1.6,1.05-.5,1.9-.79,1.62,1.76-1.29-.17-1.86.19-2.65-.02-.34-.09-.57-.44-.86-.43-.58.02.15.49-2.27.3-.16-.01-.26.31-.3.32-.14.03-.26-.23-.49-.22-5.31.28-3.88-1.97-3.82,2.55,4.03,2.62,10.13.14,10.11.1-.07,1.2-.03,2.44.41,3.48.64-2.69.54-.03.35.81-1.44.07-3.22-.03-4.36.2-.31.06-.16.87-.62-.15-4.49.93-4.07-1.14-4.74.08-.13.94.5,1.7.25,2.32,2.16,3.22,4.56.81,8.73-.04-1.04,2.99-.27,3.98-1.31,1.83.18,4.99,1.32.31,2.56,3.67-.42.82-3.27-.69.52,5.42.12,1.63.51.56,1.67,2.8-2.15.79-2.61-.24-3.54.36.05.1.38,4.13,3.67,2.67.29-.13-.2-.64.87-.31.12.67.02.65.16.05,1.06.05.6-.74,1.25.1.74,1.32.22.55-.56,1.18-.32-.28-.63-.11-.96-.46-.51.76-1.4-.06-2.2.67.72,2.16,1.31,3.35,4.24,3.16.51.07-.3-.98.15-.97.44-.07,1.08,2.13,1.5,2.96-.45-.22-.92-.06-1.04.44-.03,1.02,1.02,1.46,1.1,2.5-.64-.23-.93.38-1.06.91,2.91,3.57,1.25,1.91,4.85,1.41,1.61,1.92.87.45-.8,1.59-.64-.43-1.29-.04-1.16.73,1.63,2.37,1.71,2.58,4.72,1.73.41,1.52,2.2,3.39,3.36,4.45.48.45.16,0-.54.81-4.84-1.58-.38,2.11-.25,2.27,1.03-.28,2.16-.16,3.09-.8.63.7,1.36,1.58.61,2.22.34.37.68.73,1.02,1.1-.52.07-.44.38-.86.63.48.89,1.04.74,1.64,1.8.62.43.99.24,1.61.7.6-.08,2.05,2.88,5.91,3.82.53.72-.14.5-.29.57,3.07,3.27,4.06,4.42,8.98,5.95l-.16,1.05s7.35,6.34,11.32,7.38c-.1.07-.28.18-.73.1,5.4,1.72,12.64,8.53,15.97,5.86,1.36.19,2.75.23,4.11.34-4.91-1.67,1.15-1.22-.73-2.35,1.92.34,4.75,2.38,2.3,1.91l-.33-.27c-2.07,2.38,19.53,6.94,35.69,5.48-1.58-1.56-1.94-1.2,2.09-1.59.92.21,1.33.93-1.08,1.18,1.37.63,3.94-1.17,3.93-1.52,5.71-.33-4.28,2.67,1.81,1.25l-.47-.08c6.38-3.62,5.19-1.32,6.17-1.47.03.17.14.03,5.26-1.25-5.92-1.78.89,1.52,23.29-12.47-.8.24-1.83-.56.54-1.9.54,2.72,4.71-1.8,7.66-1.81-2.17.26,6.07-5.35,2.43-4.56,1.87-1.35.72.64,2.45-.06,4.31-5.14,9.06-7.72,13.29-13.69-.2-.29-1.31.29-.8-1.16,6.67-3.25,1.48-3.24,4.95-5.43-.42.14-1.06.34-.66-.48,8.74-10.37,11.23-24.71,16.3-37.4-.97,1.73-.81.49-.59-.9-.31.88-.81-.15-1.29-.04,3.28-9.05,1.13-2.67,1.55-9.03ZM131.3,7.07c.31-.05.51-.13.33-.33l-1.06-.08c.92-.82,1.89.62.73.41Zm27.16,116.67c0,2.31-1.22,4.44-3.22,5.59-44.76,26-43.55,26.65-47.91,24.06-45.22-26.26-44.65-24.63-44.65-29.65,0-52.12-1.25-50.79,3.06-53.6.25-.18,41.62-24.19,41.59-24.18,2-1.16,4.48-1.16,6.49,0,43.79,25.44,41.93,24.41,41.9,24.39,3.79,2.54,2.73,4.03,2.73,53.38Zm9.37-101.66c-.34-.24-.68-.47-1.03-.71.76-1.16,1.23-.75,1.64-.5-.85-.61,1.7-.54-.6,1.21Zm28.53,31.04c.09.07.15.15.19.33l-.19-.33Z"/>
    <path class="cls-3" d="m165.53,15.54c.21-.61.27-.46-1.58-1.29.96.5,1.2.86,1.58,1.29Z"/>
    <path class="cls-3" d="m153.06,9.6c.59.49.82-.71,1.08-.25,1.17-.56-4.99-.94-1.08.25Z"/>
    <path class="cls-3" d="m212.63,106.43c.2-.68.33-1.37.49-2.06-.81,1.55-.74,1.12-.49,2.06Z"/>
    <path class="cls-3" d="m212.57,101.96c-2.19-2.5-.38-.58-1.25.46l1.25-.46Z"/>
  </g>
  <path class="cls-2" d="m85.33,191.31c1.06.35.29,3.06,1.67,2.71.38-2.3-1.03-4.63-1.67-2.71Z"/>
  <path class="cls-2" d="m18.68,150.72c.42,2.13.07,5.87,1.67,6.18.76-1.99.57-5.62-1.67-6.18Z"/>
  <path class="cls-2" d="m16.49,114.66c.35,5.93,4.29-.35,6.96.64,0-3.4.57-2.7-2.19-2.7.72,2.9-1.55,1.74-2.19,3.35,0-1.03-.3-1.72-.9-2.06,0,2.73-.33.44-1.67.77Z"/>
  <path class="cls-2" d="m21.38,124.19c.82-.41,2.71.87,2.71-.77-1.28.51-2.71-1-2.71.77Z"/>
  <path class="cls-2" d="m83.27,172.25c0,1.62-.4,1.29,1.55,1.29.17-1.2-.69-1.63-1.55-1.29Z"/>
  <path class="cls-2" d="m79.02,170.83c-2.06-.34-1.67-2.36-3.74-2.71-.48,2.4.02,2.19-.64,6.18,2.36-1.83,3.06-1.97,4.38-3.48Z"/>
  <path class="cls-2" d="m92.69,22.53h-2.71c0,1.12.17,2.02.52,2.71,2.08-.52,2.47-.9,2.19-2.71Z"/>
  <path class="cls-2" d="m98.41,175.6c3.31-.34,2.77,1.12.52-2.7-.56-.94-1.35-1.63-2.38-2.06,0,3.27-.61,5.03,1.87,4.77Z"/>
  <path class="cls-2" d="m92.29,166.84c-1.3,0-1.03-.33-1.03,1.29,1.3,0,1.03.33,1.03-1.29Z"/>
  <path class="cls-2" d="m93.96,160.65c0-1.24.81-.77.39-2.06-2.01,0-.33-.06-1.42.84-.26.21-.3.62-.13,1.22h1.16Z"/>
  <path class="cls-2" d="m93.96,180.49c.94-1.72-.38-2.51-2.71-4.25-.22,1.29-.05,1.75-1.03,1.42,0,2.48,1.13,2.05,3.74,2.83Z"/>
  <path class="cls-2" d="m86.49,160.65c0-1.23.74-.72.51-2.06-1.97,0-.36-.04-1.42.84-.26.21-.35.62-.26,1.22h1.16Z"/>
  <path class="cls-2" d="m47.67,60.22c1.47,0,1.95-.07,1.8-1.42-1.8,0-.62-.37-1.8,1.42Z"/>
  <path class="cls-2" d="m11.72,101c-1-.79-1.03-2.06-1.03-3.35,2.81-1.32,3.22-2.74,6.31-6.96-2.82-.65-1.94.77-4.64.77.39,3.51-1.79,2.95-2.83,3.99-.61,1.82.95,2.11.64,3.35-1.2,1.29-2.45,1.55-3.74.77-1.4,4.9,4.95,4.42,5.28,1.42Z"/>
  <path class="cls-2" d="m44.58,69.11c1.38,0,.2,1.87,1.55,1.42,0-2.85.31-2.06-.97-2.06-.39,0-.58.22-.58.64Z"/>
  <path class="cls-2" d="m50.89,34.2c.08.52-.13.77-.64.77v.77c-.86-.69-.08,2.03-.64-.52l-.26,1.16c-1.58.53-.59,1.9-2.83,1.29,0,2.6-.47,2.06,1.8,2.06-.26-.94-.19-1.52.19-1.74,1.55-.86-.07-1.22,1.74-.71v-.9c1.75,1.05,1.66-2.52.64-2.19Z"/>
  <path class="cls-2" d="m14.94,145.31v-1.29c-1.01-2.34-2.67,1.96,0,1.29Z"/>
  <path class="cls-2" d="m77.61,188.61c0-2.75.18-3.97-.77-4.77.53-1.41.77-1.53-.9.64.36,0-.26,4.12,1.67,4.12Z"/>
  <path class="cls-2" d="m69.36,202.9c-1.47-.36-1.7,1.19-1.55,2.71,1.2.34,1.72-.56,1.55-2.71Z"/>
  <path class="cls-2" d="m41.87,61.63c1.68.21,2.06-.29,2.06-1.42-1.56,0-2.38-.51-2.06,1.42Z"/>
  <path class="cls-2" d="m75.93,183.84c0,.8-.11.94.32-.06.37-.86,2.01-1.36-.07-.58-.45-3.61,4.61-4.12-.26-4.12.2,2.58-1.14,2.01-2.19,4.12.52.52,1.24.73,2.19.64Z"/>
  <path class="cls-2" d="m0,98.17c.48.8,2.24.72,2.06-1.29-1.29-.26-1.98.17-2.06,1.29Z"/>
  <path class="cls-2" d="m43.55,49.91c.26-1.72-.13-2.62-1.16-2.71.37,2.59-2.95,3.08-.51,4.12.45-1.37,1.15-.38,1.67-1.42Z"/>
  <path class="cls-2" d="m99.26,14.29c-.55.18-.91-.05-1.87-.19-3.23-.45,1.87,5.18,1.87.19Z"/>
  <path class="cls-2" d="m163.35,38.79c1.13,0-.15-.2.45-2,.76-2.31,1.51-1.48-2.12-1.48.17,1.89.73,3.05,1.67,3.48Z"/>
  <path class="cls-2" d="m172.76,50.38c0-2.26,1.54-4.26,0-5.41.31,1.85-1.81,3.97,0,5.41Z"/>
  <path class="cls-2" d="m184.09,70.86h-1.8c0,2.15.69,3.27,2.06,3.35.38-.75-.79-2.03-.26-3.35Z"/>
  <path class="cls-2" d="m166.32,38.79c-.17-1.72-.86-2.62-2.06-2.7-.21,1.76-.73,3.4,2.06,2.7Z"/>
  <path class="cls-2" d="m164.77,51.03c1.46,0,1.16.37,1.16-1.42-1.46,0-1.16-.37-1.16,1.42Z"/>
  <path class="cls-2" d="m18.29,71.85c-.93-.31-.66-3.25-1.55-3.48,0,2.35-1.65,2.29-1.29,4.77,1.37.26,2.32-.17,2.83-1.29Z"/>
  <path class="cls-2" d="m107.12,25.24c.81-2.17,1.35-2.31,2.58-2.06-.41-2.66-1.97-1.45-3.74-3.48,1.03,3.45-2.72,1.18-2.06,4.12,1.46-.34,2.53.13,3.22,1.42Z"/>
  <path class="cls-2" d="m189.37,63.26c.91-.91,1.03-5.12-1.16-4.77-1.55,1.55-.95,4.24,1.16,4.77Z"/>
  <path class="cls-2" d="m184.03,92.31c-.05,1.16.32,1.74,1.09,1.74v-2.7c2.78.35,3.01-3.74,5.28-4.12,10.35-1.52,2.17,19.85,7.99,11.59-4.06-.67-.51-5.52-.51-8.89-2.6.65-2.56-2.97-1.03-4.12-1.2.26-1.76-.43-1.67-2.06,1.14-.32,1,.01.52-1.29,2.18,0,.52-3.05-.52-.64-1.91,1.91,1.47.17-2.38,3.74-.56.52-1.35.82-2.38.9-2-.5-1.46-2.71-3.86-2.71-.59,2.05,1.1,3.07.64,4.9-3.76,3.76-2.93-2.72-3.15,3.67Z"/>
  <path class="cls-2" d="m28.34,58.84c1.65,0,2.65-.46,3.35-3.48-2.16,1.21-3.03,1.41-3.35,3.48Z"/>
  <path class="cls-2" d="m180.74,81.81c.72-.96.15-1.86,1.16-2.06-1.78-1.95-2.55-8.48-2.45-9.27l-.9.39c.26-1.55,0-2.23-.77-2.06-.22,1.55.39.79.39,2.06-.16,1.3-.3,1.16.39.64-.25,3.37-.1,7.81,2.19,10.3Z"/>
  <path class="cls-2" d="m125.79,27.17h-1.29c0,1.1-.39.61-.39,1.55,1.36-.27,1.83-.15,1.67-1.55Z"/>
  <path class="cls-2" d="m120.38,15.71c-2.71,0-2.06-.95-2.06,3.99,1.37-.43,2.06-1.76,2.06-3.99Z"/>
  <path class="cls-2" d="m118.32,31.94c.37-.86.9-2.7,0-2.7-.25.25-1.42,2.7,0,2.7Z"/>
  <path class="cls-2" d="m127.85,16.99c-1.65,0-2.39-.52-2.06,1.42,1.29.09,1.97-.39,2.06-1.42Z"/>
  <path class="cls-2" d="m107.5,28.72c0,3.35-1.52.41,1.42,3.35,3.18,4.79,2.86-4.12-1.42-3.35Z"/>
  <path class="cls-2" d="m160.13,19.73c-1.46,0-1.16-.33-1.16,1.29,1.46,0,1.16.33,1.16-1.29Z"/>
  <path class="cls-2" d="m157.94,45.62c-1.03-.34-.3-3.41-2.06-2.7-.68,2.03,1.36,4.1,2.06,2.7Z"/>
  <path class="cls-2" d="m152.02,36.86c.52-2.06,1.77-1.23,1.16-3.48-.92,0-1.37-.6-1.55-.77-.33,1.3-1.35,3.91.39,4.25Z"/>
  <path class="cls-2" d="m159.62,48.32c1.02.51.78.96,2.06.77.66-1.99-2.39-1.75-2.06-.77Z"/>
  <path class="cls-2" d="m153.18,25.78c.28,1.96-2.77,3.93-1.16,5.54-.36-2.14,3.21-3.49,1.16-5.54Z"/>
  <path class="cls-2" d="m16.23,82.8c-.34-3.02-1.44-2.91-2.19-5.54.54-.54.58-1.76-.64-1.42.63,3.48-1.25,4.75-.9,8.24,1.71.69,1.79-1.93,3.74-1.29Z"/>
  <path class="cls-2" d="m126.37,179.11c-.87,1.13-.25,4.26-2.79,3.03,0,1.46-1.48,2.08,0,1.36.82,2.4,5.96-1.67,4.82-3.34-.45,1.54-1.58.3-2.04-1.04Z"/>
  <path class="cls-2" d="m178.04,63.78l.52-.51c.69,0,1.12.26,1.29.77,1.84-1.11,4.92-4.17,4.25-6.18-.3,1.8-1.44,1.69-2.83.51-1.15-2.01.06-.16-.64.77-.87,2.62-1.54,1.41-2.06,3.48-1.4-.7-.52-.47-.52,1.16Z"/>
  <path class="cls-2" d="m132.91,180.15c.78.91,2.91-.54,3.43-1.04-3.12.44-3.43-8.22-3.43,1.04Z"/>
  <path class="cls-2" d="m133.34,169.61c-.14,0-.27-.07-.37-.21-.4-.51-.54.36-.05-1.36-1.55,1.08-.28.09,0,0-1.56-1.3-.08-.03-.32-2.82-2.27,0-1.01-.23-1.29,1.15-.29,1.39-.87,1.82-.11,2.19-.13,1.25-.22.88.32,1.67.19,1.89-.7.89-.32,2.71,1.75-.34,2.14-1.57,2.14-3.34Z"/>
  <path class="cls-2" d="m133.87,183.6c-.37-.17-.33-.37-.75-.68-.91-.66-1.37,2.72.86,1.1,1.31-.96.29-.22-.11-.42Z"/>
  <path class="cls-2" d="m178.04,63.78c-.34-2.07-.12-1.76-.9-.51-2.42-1.37-1.95-5.73-4.38-7.47,0,2.15.28,3.95.84,5.41,2.23,5.85.01,5.71,2.64,3.41.35-.31,1.5-1.13,1.8-.84Z"/>
  <path class="cls-2" d="m77.53,51.01c-.42,1.69-.83,1.56-1.55,3.48,1.56-.45.77.88,2.19.64.59-2.37,1.09-3.8-.64-4.12Z"/>
  <path class="cls-2" d="m121.88,176.92c-.92,2.33-1.87,1.48-3,3.24.89,0-.16,1.76.43,2.71,1.98.56,2.28-.92,3.86,0-.59,2.61,1.03-.69-1.29-5.95Z"/>
  <path class="cls-2" d="m70.7,47.53c.33,4.67,4.68.97,5.28-.52-2.18-.62-2.99.9-5.28.52Z"/>
  <path class="cls-2" d="m97.24,41.48c-4.71-1.18-9.8-.7-10.43,4.12,4.48,0,3.74.43,3.74-1.29,0-1.43,1.94-.62,2.25.19.78,2.06-.73,4.9-.19,7.28,2.77.31,4.2-1.02,5.93-4.25-1.38-1.38-2.96,3.08-1.29-6.05Z"/>
  <path class="cls-2" d="m35.81,80.09c.16-1.25.3-.9-.52-1.55-.63-1.89,1.41-1.05,1.03-3.35-1.4-.23-.84,1.1-2.19.64,2.91,7.79.35,6.96,2.96,6.96,0-2.3,1.28-2.7-1.29-2.7Z"/>
  <path class="cls-2" d="m203.67,112.47c-1.02-1.35-.65-6.38.77-6.96-1.62-3.23-.6-10.81-2.96-13.53-1.37,1.91-1.67,3.16-1.67,4.77,5.05,2.02.57,9.43,2.32,14.3-1.59,1.75-1.95,1.26-4.25,0-1.4,4.54-1.41,4.76-.39,9.53-.69-.09-1.12.04-1.29.39-.24.48-1.19.79-1.67-.32-.65-1.46-1.02-2.71-2.45-2,0,2.22.96,1.81,0,3.35,2.84.29,3.33,1.42,3.09,3.35l-.77.52c.33,1.17.52.9-.77.9.48,1.68-.93,3.35.64,3.35-.2-1.77.41-1.41.9-3.35,1.2-.34,1.2-.16-.25-.64-1.17-.28.62.03,1.15.38-.48-1.45-.55-1.16.13-1.16.34-5.24,4.6-4.51,4.25-10.95,1.97-.56,2.88-.26,3.22-1.93Z"/>
  <path class="cls-2" d="m24.73,84.08c.47,6.14-.17,6.54,1.55,10.3,2.46-4.09,1.52-9.69-1.55-10.3Z"/>
  <path class="cls-2" d="m19.19,52.14c-.85.17-.94.03.52.52l-.52-.52Z"/>
  <path class="cls-2" d="m22.54,79.32c-1.3,0-1.03-.33-1.03,1.29,1.3,0,1.03.33,1.03-1.29Z"/>
  <path class="cls-2" d="m194.65,101.65c-3.59,0-2.75-4.59-4.25-7.6-1.05,2.46-4.43,1.07-4.77,4.12.86.6,1.16,1.76.9,3.48,2.06.35.49-4.1,1.67-4.89,2.5.63,3,3.08,3.22,8.11-1.86,1.4-5.18,1.06-4.89-2.06,1.06-1.32.26-.13-.64-1.03l.26,1.03c-1.77.71.69,1.74,0,3.48,5.14-1.37,3.21,6.86,5.93,8.89-1.39-7.97,1.1-9.39,2.58-13.53Z"/>
  <path class="cls-2" d="m139.23,166.37c-1.12,1.92.32,3.65,0,7.2h2.57c-.6-3.24-2.28-4.01-2.57-7.2Z"/>
  <path class="cls-2" d="m140.09,161.99c-1.03-3.2-.68-4.62-2.68-4.91-.63.51-.85.9-.43,1.62,2.11,3.6-1,3.34.43,4.96,1.68,0,.97-1.48,2.68-1.67Z"/>
  <path class="cls-2" d="m78.82,29.88c.51,3.35.48,4.78,2.06,5.41-.38-2.48-.97-2.66-2.06-5.41Z"/>
  <path class="cls-2" d="m33.1,144.54c-.34,2.39,1.97,4.16,3.22,2.19-2.09-.46-1.22-2.19-3.22-2.19Z"/>
  <path class="cls-2" d="m30.91,148.02c0-16.71,0-2.7-3.74-2.7-1.51-.75-.37-.43-.13,1.03-.83-1.83-.74-1.8-.39-.39-.97,0-2.7,1.96-3.35,0,1.43.36,1.61-1.25.77-1.42-.43,1.03-.99,1.5-1.67,1.42v2.06c2.2-.49,3.66.94,4.25-.64,1.75.5.39.26.39-.77.66,1.33.66,1.38.13.13,2.34-1.01,1.76,1.95,3.74,1.29Z"/>
  <path class="cls-2" d="m34.65,175.33c0-3.3,1.42-1.98,1.93-4.77-4.75-.66-2.94,4.16-1.93,4.77Z"/>
  <path class="cls-2" d="m77.53,38.13c.7-3.51-2.19-2.05-2.19-5.54-6.14-1.61-6.43,2.12-7.21,7.6,4.91-1.36,5.8-2.06,9.4-2.06Z"/>
  <path class="cls-2" d="m27.82,167.86c2.13-1.33,2.9-1.16,4.25-2.71-3.05.51-4.25.12-4.25,2.71Z"/>
  <path class="cls-2" d="m31.17,138.87c-.67-.17-.58-.43-.26,1.03.71-.82,1.05-1.03.26-1.03Z"/>
  <path class="cls-2" d="m64.22,156.91c-1.06-3.49-2.52-7.14-5.28-9.53.34,2.07-1.63,2.09-2.32,3.48,2.96-1.98,6.83,5.35,2.83,7.34-2.86-5.01-4.82-4.39-6.96-9.53-.43,2.14-1.06.95-2.06,2.71-1.14.97-1.25.7.26,1.03.11,0,2.27.57,0,0-1.34,0-1.31-1.08-.9,1.16-.92,2.46,3.69,3.18,3.35,6.57,4.57-1.96,5.2.58,10.05-1.16-.32,1.29-.89,2.1,1.8-2.45l-.77.39Z"/>
  <path class="cls-2" d="m31.43,137.84c2.98-1.32,1.41,3.37,3.74,2.7.93-5.12-4.06-3.77-3.48-5.8-1.09,1.9-.72,1.94-2.06,3.48,1.01-.5.71-.62,1.03.52,1.3.32,1.08.46.77-.9Z"/>
  <path class="cls-2" d="m36.32,154.2c-1.95-1.08-2.76-.45-5.41-1.42,0,4.7,4.73,6.46,5.41,1.42Z"/>
  <path class="cls-2" d="m47.53,157.55c-3.78-1.03-6.76,2.83-4.38,5.54-1.48,0-2.12,4.7,0,3.99.33-2-1.05-2.67.64-3.35,1.56.94,2-.02,3.74,2.06-.74-3.31,1.67-1.57,1.67-4.12.34-2.75-2.75-.89-1.67-4.12Z"/>
  <path class="cls-2" d="m36.32,162.45c.52,2.1-1.02,2.1-.51,3.35,2.33.67,3.8-3.71.51-3.35Z"/>
  <path class="cls-2" d="m56.42,152.14c-4.95-.98.05,4.42,1.03,2.7,0-3.59.33-2.43-1.03-2.7Z"/>
  <path class="cls-2" d="m44.82,152.78c-3.15,1.05-1.37-4.39-4.51-3.35v2.71c-1.21,0-2.08-.06-1.55,1.42,1.84.31,5.33,3.18,6.05-.77Z"/>
  <path class="cls-2" d="m63.88,57.19c0,3.58,2.08.74,3.74,2.06,0-2.13-.99-2.06-3.74-2.06Z"/>
  <path class="cls-2" d="m192.87,158.22c-.42,1.69-.83,1.56-1.55,3.48,1.56-.45.77.88,2.19.64.59-2.37,1.09-3.8-.64-4.12Z"/>
  <path class="cls-2" d="m186.05,154.74c.32,4.66,4.67.99,5.28-.52-2.19-.62-2.98.9-5.28.52Z"/>
  <path class="cls-2" d="m212.58,148.69c-4.71-1.18-9.8-.7-10.43,4.12,4.48,0,3.74.43,3.74-1.29,0-1.43,1.94-.62,2.25.19.78,2.06-.73,4.9-.19,7.28,2.77.31,4.2-1.02,5.93-4.25-1.38-1.38-2.96,3.08-1.29-6.05Z"/>
  <path class="cls-2" d="m194.16,137.1c.51,3.35.48,4.78,2.06,5.41-.38-2.48-.97-2.66-2.06-5.41Z"/>
  <path class="cls-2" d="m192.87,145.34c.7-3.51-2.19-2.05-2.19-5.54-6.14-1.61-6.43,2.12-7.21,7.6,4.91-1.36,5.8-2.06,9.4-2.06Z"/>
  <path class="cls-2" d="m179.22,164.4c0,3.58,2.08.74,3.74,2.06,0-2.13-.99-2.06-3.74-2.06Z"/>
  <line class="cls-2" x1="194.65" y1="82.84" x2="194.4" y2="82.71"/>
  <path class="cls-2" d="m31.69,139c-.3-.14-.22-.06-1.03-.26"/>
  <path class="cls-2" d="m162.43,154.58c-.28,3.1,3.03,3.46,4.89,2.06-.22-5.03-.73-7.49-3.22-8.11-1.22.82.4,5.24-1.67,4.89.65.65.65.35,0,1.16Z"/>
  <path class="cls-2" d="m132.91,168.04c-.21.07-.47.25-.75.52l.75-.52Z"/>
  <path class="cls-2" d="m178.04,63.78c0-.34-.04-.6-.13-.77l.13.77Z"/>
  <path class="cls-2" d="m18.55,52.27c.26.26.64.39,1.16.39l-1.16-.39Z"/>
  <path class="cls-2" d="m27.57,76.62c2.22.74.6.1.32.06-.12-.02-.22-.04-.32-.06Z"/>
  <path class="cls-2" d="m27.57,76.62l-.39-.13c.1.05.24.09.39.13Z"/>
  <path class="cls-2" d="m177.78,62.23c0,.34.04.6.13.77l-.13-.77Z"/>
  <path class="cls-2" d="m16.23,130.37c.52.17.9.26,1.16.26l-1.16-.26Z"/>
  <path class="cls-2" d="m12.17,109.38c-.3-1.16-.19-.63.06.52,0-.17-.02-.34-.06-.52Z"/>
  <path class="cls-2" d="m17.39,130.63l1.03.26c-.51-.17-.86-.26-1.03-.26Z"/>
  <path class="cls-2" d="m40.84,94.63c-.39.9-.76,1.28.97-.97-.52.34-.84.67-.97.97Z"/>
  <path class="cls-2" d="m27.56,147.63l-.51-1.03c0,.34.17.69.51,1.03Z"/>
  <path class="cls-2" d="m122.95,183.81c.43-.7.64-1.25.64-1.67l-.64,1.67Z"/>
  <path class="cls-2" d="m26.4,144.93l.64,1.42c-.09-.51-.3-.99-.64-1.42Z"/>
  <path class="cls-2" d="m31.69,134.75c-3.79,6.4-1.01,2.08-.84,1.67.21-.51.49-1.07.84-1.67Z"/>
</svg>